<svg 
 xmlns="http://www.w3.org/2000/svg"
 xmlns:xlink="http://www.w3.org/1999/xlink"
 width="1.889in" height="1.889in">
<path fill-rule="evenodd"  fill="rgb(226, 216, 198)"
 d="M67.1000,-0.015 C105.559,-0.015 136.007,30.437 136.007,67.1000 C136.007,105.563 105.559,136.015 67.1000,136.015 C30.441,136.015 -0.007,105.563 -0.007,67.1000 C-0.007,30.437 30.441,-0.015 67.1000,-0.015 Z"/>
<path fill-rule="evenodd"  fill="rgb(0, 0, 0)"
 d="M109.045,85.001 L95.974,56.920 C96.416,56.028 96.839,55.187 97.238,54.413 L110.002,85.001 L109.045,85.001 ZM79.506,85.001 C83.141,77.370 90.138,59.815 93.687,52.365 L96.380,52.365 C92.203,60.257 84.726,76.950 80.464,85.001 L79.506,85.001 ZM69.112,69.227 C68.253,69.511 67.344,69.640 66.440,69.668 L74.777,85.001 L73.792,85.001 L63.838,69.790 L63.927,69.737 L60.878,69.816 L60.878,67.550 L66.212,67.688 C66.303,67.692 66.452,67.694 66.538,67.695 C67.224,67.706 67.915,67.632 68.578,67.452 C72.649,66.391 75.009,61.939 73.664,57.965 C72.752,55.087 69.937,52.919 66.892,52.751 C66.687,52.733 66.121,52.726 65.908,52.720 C62.894,52.674 58.224,52.549 55.241,52.522 C55.241,52.522 55.241,52.209 55.241,52.209 C56.574,52.196 59.243,52.144 60.575,52.118 C61.019,52.113 66.275,51.1000 66.577,51.998 C67.274,51.990 67.977,52.055 68.658,52.211 C73.509,53.273 76.486,58.467 75.032,63.198 C74.226,66.001 71.924,68.348 69.112,69.227 ZM55.539,85.001 L42.468,56.920 C42.910,56.028 43.334,55.187 43.733,54.413 L56.497,85.001 L55.539,85.001 ZM26.001,85.001 C29.636,77.370 36.633,59.815 40.181,52.365 L42.874,52.365 C38.697,60.257 31.221,76.950 26.959,85.001 L26.001,85.001 Z"/>
</svg>