<svg 
 xmlns="http://www.w3.org/2000/svg"
 xmlns:xlink="http://www.w3.org/1999/xlink"
 width="1.764in" height="1.75in">
<path fill-rule="evenodd"  fill="rgb(27, 27, 27)"
 d="M126.868,62.320 L126.793,66.364 L126.790,66.547 L126.414,66.541 L126.417,66.357 L126.489,62.497 L123.859,62.448 L123.807,65.223 L123.804,65.407 L123.428,65.400 L123.432,65.216 L123.483,62.441 L120.853,62.392 L120.781,66.252 L120.778,66.436 L120.402,66.429 L120.406,66.245 L120.481,62.201 L120.484,62.018 L120.672,62.021 L123.490,62.073 L123.866,62.080 L126.684,62.132 L126.872,62.136 L126.868,62.320 ZM123.396,56.943 C122.594,57.130 121.842,57.034 121.140,56.655 C120.471,56.283 120.054,55.753 119.889,55.065 L119.887,55.056 L119.886,55.047 L119.563,52.865 L119.536,52.683 L119.722,52.655 L125.670,51.775 L125.856,51.747 L125.883,51.929 L126.207,54.120 L126.209,54.129 C126.241,54.818 126.006,55.436 125.505,55.981 C124.952,56.570 124.249,56.891 123.396,56.943 ZM125.538,52.166 L119.962,52.992 L120.257,54.983 C120.397,55.544 120.741,55.986 121.289,56.308 C121.911,56.662 122.595,56.752 123.342,56.580 L123.361,56.577 C124.063,56.529 124.656,56.277 125.139,55.821 C125.638,55.344 125.870,54.790 125.833,54.157 L125.538,52.166 ZM120.408,39.508 C120.165,39.624 119.904,39.673 119.626,39.657 C119.114,39.616 118.688,39.384 118.348,38.962 C118.320,39.064 118.285,39.165 118.243,39.267 C118.011,39.798 117.394,40.513 116.392,41.411 L116.204,41.583 L116.038,41.234 L116.140,41.144 C116.827,40.518 117.314,40.011 117.601,39.623 C117.839,39.293 117.997,38.926 118.076,38.522 L117.071,36.414 L114.527,37.626 L114.357,37.707 L114.199,37.375 L114.369,37.294 L116.913,36.082 L117.083,36.001 L119.793,34.720 L119.962,34.640 L120.041,34.806 L121.149,37.109 C121.344,37.518 121.395,37.938 121.302,38.370 C121.175,38.905 120.878,39.284 120.408,39.508 ZM120.810,37.270 L119.786,35.121 L117.402,36.256 L117.410,36.273 L117.414,36.281 L117.418,36.290 L117.422,36.298 L117.426,36.306 L117.430,36.314 L117.434,36.323 L117.438,36.331 L117.442,36.339 L117.446,36.348 L117.450,36.356 L117.454,36.364 L117.458,36.373 L117.461,36.381 L117.465,36.389 L117.469,36.397 L117.473,36.406 L117.477,36.414 L117.481,36.422 L117.485,36.431 L117.489,36.439 L117.493,36.447 L117.497,36.456 L117.501,36.464 L117.505,36.472 L117.509,36.480 L117.513,36.489 L117.517,36.497 L117.521,36.505 L117.525,36.514 L117.529,36.522 L117.533,36.530 L117.537,36.539 L117.541,36.547 L117.545,36.555 L117.548,36.563 L117.552,36.572 L117.556,36.580 L117.560,36.588 L117.564,36.597 L117.568,36.605 L117.572,36.613 L117.576,36.621 L117.580,36.630 L117.584,36.638 L117.588,36.646 L117.592,36.655 L117.596,36.663 L117.600,36.671 L117.604,36.680 L117.608,36.688 L117.612,36.696 L117.616,36.704 L117.620,36.713 L117.624,36.721 L117.628,36.729 L117.631,36.738 L117.635,36.746 L117.639,36.754 L117.643,36.763 L117.647,36.771 L117.651,36.779 L117.655,36.787 L117.659,36.796 L117.663,36.804 L117.667,36.812 L117.671,36.821 L117.675,36.829 L117.679,36.837 L117.683,36.846 L117.687,36.854 L117.691,36.862 L117.695,36.870 L117.699,36.879 L117.703,36.887 L117.707,36.895 L117.711,36.904 L117.715,36.912 L117.718,36.920 L117.722,36.929 L117.726,36.937 L117.730,36.945 L117.734,36.953 L117.738,36.962 L117.742,36.970 L117.746,36.978 L117.750,36.987 L117.754,36.995 L117.758,37.003 L117.762,37.012 L117.766,37.020 L117.770,37.028 L117.774,37.036 L117.778,37.045 L117.782,37.053 L117.786,37.061 L117.790,37.070 L117.794,37.078 L117.798,37.086 L117.801,37.095 L117.805,37.103 L117.809,37.111 L117.813,37.119 L117.817,37.128 L117.821,37.136 L117.825,37.144 L117.829,37.153 L117.833,37.161 L117.837,37.169 L117.841,37.178 L117.845,37.186 L117.849,37.194 L117.853,37.202 L117.857,37.211 L117.861,37.219 L117.865,37.227 L117.869,37.236 L117.873,37.244 L117.877,37.252 L117.889,37.256 L117.893,37.265 L117.897,37.273 L117.901,37.281 L117.905,37.290 L117.909,37.298 L117.913,37.306 L117.917,37.315 L117.921,37.323 L117.925,37.331 L117.929,37.339 L117.933,37.348 L117.936,37.356 L117.940,37.364 L117.944,37.373 L117.948,37.381 L117.952,37.389 L117.956,37.398 L117.960,37.406 L117.964,37.414 L117.968,37.422 L117.972,37.431 L117.976,37.439 L117.980,37.447 L117.984,37.456 L117.988,37.464 L117.992,37.472 L117.996,37.481 L117.1000,37.489 L118.004,37.497 L118.008,37.505 L118.012,37.514 L118.016,37.522 L118.020,37.530 L118.023,37.539 L118.027,37.547 L118.031,37.555 L118.035,37.564 L118.039,37.572 L118.043,37.580 L118.047,37.588 L118.051,37.597 L118.055,37.605 L118.059,37.613 L118.063,37.622 L118.067,37.630 L118.071,37.638 L118.075,37.647 L118.079,37.655 L118.083,37.663 L118.087,37.671 L118.091,37.680 L118.095,37.688 L118.099,37.696 L118.103,37.705 L118.107,37.713 L118.110,37.721 L118.114,37.729 L118.118,37.738 L118.122,37.746 L118.126,37.754 L118.130,37.763 L118.134,37.771 L118.138,37.779 L118.142,37.788 L118.146,37.796 L118.150,37.804 L118.154,37.812 L118.158,37.821 L118.162,37.829 L118.166,37.837 L118.170,37.846 L118.174,37.854 L118.178,37.862 L118.182,37.871 L118.439,38.410 C118.581,38.709 118.792,38.941 119.072,39.106 C119.473,39.336 119.866,39.359 120.250,39.176 C120.510,39.052 120.705,38.851 120.836,38.571 C121.032,38.152 121.023,37.718 120.810,37.270 ZM114.530,31.535 C113.793,32.055 113.007,32.268 112.174,32.174 C111.372,32.080 110.757,31.730 110.330,31.124 C109.907,30.515 109.783,29.818 109.959,29.034 C110.149,28.218 110.612,27.549 111.349,27.029 C112.086,26.509 112.871,26.296 113.704,26.391 C114.507,26.484 115.122,26.834 115.549,27.440 C115.977,28.046 116.100,28.742 115.920,29.530 C115.730,30.347 115.266,31.015 114.530,31.535 ZM115.242,27.657 C114.877,27.150 114.352,26.852 113.669,26.764 C112.924,26.675 112.221,26.864 111.561,27.329 C110.937,27.770 110.532,28.337 110.347,29.030 C110.158,29.741 110.255,30.367 110.637,30.907 C111.001,31.423 111.525,31.721 112.210,31.800 C112.955,31.889 113.657,31.701 114.318,31.235 C114.942,30.794 115.347,30.227 115.532,29.534 C115.720,28.823 115.624,28.198 115.242,27.657 ZM105.881,25.318 L105.743,25.446 L105.493,25.176 L105.631,25.048 L110.037,20.957 L110.175,20.829 L110.425,21.099 L110.288,21.227 L105.881,25.318 ZM104.579,18.734 C104.097,18.911 103.613,18.878 103.128,18.637 C103.145,18.741 103.156,18.848 103.160,18.957 C103.171,19.538 102.909,20.445 102.375,21.679 L102.275,21.914 L101.979,21.667 L102.035,21.542 C102.397,20.686 102.627,20.022 102.726,19.550 C102.804,19.150 102.794,18.750 102.696,18.351 L100.903,16.856 L99.098,19.021 L98.978,19.165 L98.695,18.929 L98.816,18.785 L100.621,16.620 L100.741,16.476 L102.667,14.180 L102.787,14.035 L102.929,14.153 L104.897,15.782 C105.246,16.073 105.468,16.433 105.564,16.864 C105.673,17.403 105.561,17.872 105.228,18.272 C105.055,18.479 104.839,18.632 104.579,18.734 ZM104.657,16.071 L102.828,14.546 L101.138,16.574 L101.152,16.586 L101.159,16.592 L101.166,16.598 L101.173,16.604 L101.180,16.610 L101.187,16.615 L101.194,16.621 L101.201,16.627 L101.208,16.633 L101.215,16.639 L101.222,16.645 L101.229,16.651 L101.236,16.657 L101.244,16.662 L101.251,16.668 L101.258,16.674 L101.265,16.680 L101.272,16.686 L101.279,16.692 L101.286,16.698 L101.293,16.704 L101.300,16.710 L101.307,16.715 L101.314,16.721 L101.321,16.727 L101.328,16.733 L101.335,16.739 L101.342,16.745 L101.349,16.751 L101.357,16.757 L101.364,16.763 L101.371,16.768 L101.378,16.774 L101.385,16.780 L101.392,16.786 L101.399,16.792 L101.406,16.798 L101.413,16.804 L101.420,16.810 L101.427,16.816 L101.434,16.821 L101.441,16.827 L101.448,16.833 L101.455,16.839 L101.462,16.845 L101.469,16.851 L101.477,16.857 L101.484,16.863 L101.491,16.869 L101.498,16.874 L101.505,16.880 L101.512,16.886 L101.519,16.892 L101.526,16.898 L101.533,16.904 L101.540,16.910 L101.547,16.916 L101.554,16.921 L101.561,16.927 L101.568,16.933 L101.575,16.939 L101.582,16.945 L101.590,16.951 L101.597,16.957 L101.604,16.963 L101.611,16.969 L101.618,16.974 L101.625,16.980 L101.632,16.986 L101.639,16.992 L101.646,16.998 L101.653,17.004 L101.660,17.010 L101.667,17.016 L101.674,17.022 L101.681,17.027 L101.688,17.033 L101.695,17.039 L101.702,17.045 L101.710,17.051 L101.717,17.057 L101.724,17.063 L101.731,17.069 L101.738,17.075 L101.745,17.080 L101.752,17.086 L101.759,17.092 L101.766,17.098 L101.773,17.104 L101.780,17.110 L101.787,17.116 L101.794,17.122 L101.801,17.128 L101.808,17.133 L101.815,17.139 L101.823,17.145 L101.830,17.151 L101.837,17.157 L101.844,17.163 L101.851,17.169 L101.858,17.175 L101.865,17.180 L101.872,17.186 L101.879,17.192 L101.886,17.198 L101.893,17.204 L101.900,17.210 L101.907,17.216 L101.914,17.222 L101.921,17.228 L101.928,17.233 L101.935,17.239 L101.943,17.245 L101.950,17.251 L101.957,17.257 L101.964,17.263 L101.971,17.269 L101.978,17.275 L101.985,17.281 L101.998,17.279 L102.005,17.285 L102.012,17.291 L102.019,17.297 L102.026,17.303 L102.033,17.309 L102.040,17.315 L102.047,17.320 L102.054,17.326 L102.062,17.332 L102.069,17.338 L102.076,17.344 L102.083,17.350 L102.090,17.356 L102.097,17.362 L102.104,17.368 L102.111,17.373 L102.118,17.379 L102.125,17.385 L102.132,17.391 L102.139,17.397 L102.146,17.403 L102.153,17.409 L102.160,17.415 L102.167,17.420 L102.174,17.426 L102.182,17.432 L102.189,17.438 L102.196,17.444 L102.203,17.450 L102.210,17.456 L102.217,17.462 L102.224,17.468 L102.231,17.473 L102.238,17.479 L102.245,17.485 L102.252,17.491 L102.259,17.497 L102.266,17.503 L102.273,17.509 L102.280,17.515 L102.287,17.521 L102.295,17.526 L102.302,17.532 L102.309,17.538 L102.316,17.544 L102.323,17.550 L102.330,17.556 L102.337,17.562 L102.344,17.568 L102.351,17.574 L102.358,17.579 L102.365,17.585 L102.372,17.591 L102.379,17.597 L102.386,17.603 L102.393,17.609 L102.400,17.615 L102.408,17.621 L102.415,17.627 L102.422,17.632 L102.429,17.638 L102.436,17.644 L102.443,17.650 L102.450,17.656 L102.457,17.662 L102.464,17.668 L102.471,17.674 L102.478,17.679 L102.485,17.685 L102.492,17.691 L102.499,17.697 L102.506,17.703 L102.513,17.709 L102.520,17.715 L102.979,18.097 C103.234,18.309 103.522,18.432 103.846,18.465 C104.306,18.506 104.673,18.363 104.945,18.036 C105.130,17.815 105.223,17.550 105.225,17.242 C105.227,16.779 105.038,16.389 104.657,16.071 ZM97.852,10.985 L94.532,9.016 L93.189,11.278 L95.577,12.695 L95.735,12.788 L95.543,13.112 L95.385,13.018 L92.998,11.601 L91.656,13.864 L94.976,15.834 L95.134,15.927 L94.942,16.251 L94.784,16.157 L91.306,14.093 L91.148,13.1000 L91.243,13.838 L92.681,11.414 L92.873,11.091 L94.311,8.666 L94.407,8.505 L94.565,8.599 L98.044,10.662 L98.202,10.756 L98.010,11.079 L97.852,10.985 ZM91.627,112.143 L91.453,111.810 L92.105,111.469 L92.279,111.802 L93.412,113.967 L93.586,114.300 L94.881,116.793 L95.055,117.126 L94.729,117.296 L92.673,118.383 C92.249,118.605 91.811,118.665 91.356,118.563 C90.811,118.446 90.413,118.148 90.163,117.671 C90.070,117.494 90.011,117.302 89.986,117.096 C89.920,116.600 90.053,116.145 90.383,115.732 C89.870,115.520 89.167,114.948 88.271,114.017 L87.918,113.661 L88.603,113.302 L88.794,113.510 C89.290,114.021 89.695,114.399 90.010,114.644 C90.379,114.925 90.750,115.098 91.123,115.164 L92.760,114.308 L91.627,112.143 ZM92.388,115.340 L92.400,115.344 L91.358,115.890 C91.157,115.995 90.996,116.143 90.874,116.334 C90.663,116.671 90.643,117.003 90.815,117.330 C90.913,117.519 91.065,117.662 91.268,117.761 C91.609,117.922 91.961,117.907 92.324,117.717 L94.067,116.805 L93.104,114.965 L92.388,115.340 ZM89.449,6.452 L87.582,5.698 L85.399,11.098 L85.329,11.272 L84.988,11.134 L85.058,10.960 L87.241,5.560 L85.358,4.798 L85.187,4.729 L85.328,4.381 L85.499,4.450 L87.382,5.211 L87.723,5.349 L89.589,6.104 L89.760,6.173 L89.619,6.521 L89.449,6.452 ZM84.150,121.747 L84.125,121.993 L83.672,122.145 L83.505,121.963 L79.449,117.376 L79.073,116.947 L79.831,116.693 L79.998,116.875 L83.478,120.813 L83.886,115.574 L83.911,115.328 L84.669,115.074 L84.627,115.643 L84.150,121.747 ZM78.936,8.852 L78.893,9.035 L78.625,8.972 L78.588,8.887 L76.056,2.607 L74.826,7.896 L74.784,8.079 L74.426,7.996 L74.468,7.813 L75.830,1.956 L75.873,1.773 L76.141,1.835 L76.178,1.921 L78.710,8.201 L79.949,2.914 L79.991,2.731 L80.350,2.814 L80.307,2.997 L78.936,8.852 ZM69.580,7.139 L69.561,7.326 L69.195,7.290 L69.214,7.103 L69.811,1.120 L69.830,0.933 L70.196,0.969 L70.177,1.156 L69.580,7.139 ZM66.556,125.191 L66.515,125.306 L66.276,125.316 L66.225,125.206 L63.387,119.313 L63.256,119.056 L63.660,119.038 L63.711,119.148 L66.366,124.654 L68.523,118.935 L68.564,118.820 L68.968,118.802 L68.861,119.070 L66.556,125.191 ZM58.796,121.851 L58.775,122.037 L58.435,125.015 L58.414,125.202 L58.231,125.182 L55.690,124.908 C55.240,124.858 54.856,124.680 54.538,124.374 C54.150,123.984 53.985,123.531 54.042,123.014 C54.072,122.746 54.167,122.499 54.328,122.271 C54.633,121.857 55.054,121.617 55.592,121.551 C55.521,121.474 55.453,121.391 55.389,121.302 C55.059,120.824 54.777,119.923 54.542,118.599 L54.496,118.348 L54.880,118.390 L54.902,118.525 C55.072,119.439 55.246,120.120 55.424,120.568 C55.579,120.945 55.808,121.273 56.110,121.552 L58.431,121.810 L58.742,119.009 L58.763,118.822 L59.128,118.863 L59.107,119.049 L58.796,121.851 ZM58.372,122.172 L58.363,122.171 L58.353,122.170 L58.344,122.169 L58.335,122.168 L58.326,122.167 L58.317,122.166 L58.308,122.165 L58.299,122.164 L58.290,122.163 L58.280,122.162 L58.271,122.161 L58.262,122.160 L58.253,122.159 L58.244,122.158 L58.235,122.157 L58.226,122.156 L58.216,122.155 L58.207,122.154 L58.198,122.153 L58.189,122.152 L58.180,122.151 L58.171,122.150 L58.162,122.149 L58.152,122.148 L58.143,122.147 L58.134,122.146 L58.125,122.145 L58.116,122.144 L58.107,122.143 L58.098,122.142 L58.089,122.141 L58.079,122.140 L58.070,122.139 L58.061,122.138 L58.052,122.137 L58.043,122.136 L58.034,122.135 L58.025,122.134 L58.015,122.133 L58.006,122.132 L57.997,122.131 L57.988,122.130 L57.979,122.129 L57.970,122.128 L57.961,122.126 L57.951,122.125 L57.942,122.124 L57.933,122.123 L57.924,122.122 L57.915,122.121 L57.906,122.120 L57.897,122.119 L57.888,122.118 L57.878,122.117 L57.869,122.116 L57.860,122.115 L57.851,122.114 L57.842,122.113 L57.833,122.112 L57.824,122.111 L57.814,122.110 L57.805,122.109 L57.796,122.108 L57.787,122.107 L57.778,122.106 L57.769,122.105 L57.760,122.104 L57.750,122.103 L57.741,122.102 L57.732,122.101 L57.723,122.100 L57.714,122.099 L57.705,122.098 L57.696,122.097 L57.687,122.096 L57.677,122.095 L57.668,122.094 L57.659,122.093 L57.650,122.092 L57.641,122.091 L57.632,122.090 L57.623,122.089 L57.613,122.088 L57.604,122.087 L57.595,122.086 L57.586,122.085 L57.577,122.084 L57.568,122.083 L57.559,122.082 L57.549,122.081 L57.540,122.080 L57.531,122.079 L57.522,122.078 L57.513,122.077 L57.504,122.076 L57.495,122.075 L57.486,122.074 L57.476,122.073 L57.467,122.072 L57.458,122.071 L57.449,122.070 L57.440,122.069 L57.431,122.068 L57.422,122.067 L57.412,122.066 L57.403,122.065 L57.394,122.064 L57.385,122.062 L57.376,122.061 L57.367,122.060 L57.358,122.059 L57.348,122.058 L57.339,122.057 L57.330,122.056 L57.321,122.055 L57.312,122.054 L57.303,122.053 L57.294,122.052 L57.283,122.061 L57.274,122.060 L57.265,122.059 L57.256,122.058 L57.247,122.057 L57.238,122.056 L57.229,122.055 L57.220,122.054 L57.210,122.053 L57.201,122.051 L57.192,122.050 L57.183,122.049 L57.174,122.048 L57.165,122.047 L57.156,122.046 L57.146,122.045 L57.137,122.044 L57.128,122.043 L57.119,122.042 L57.110,122.041 L57.101,122.040 L57.092,122.039 L57.083,122.038 L57.073,122.037 L57.064,122.036 L57.055,122.035 L57.046,122.034 L57.037,122.033 L57.028,122.032 L57.019,122.031 L57.009,122.030 L57.000,122.029 L56.991,122.028 L56.982,122.027 L56.973,122.026 L56.964,122.025 L56.955,122.024 L56.945,122.023 L56.936,122.022 L56.927,122.021 L56.918,122.020 L56.909,122.019 L56.900,122.018 L56.891,122.017 L56.882,122.016 L56.872,122.015 L56.863,122.014 L56.854,122.013 L56.845,122.012 L56.836,122.011 L56.827,122.010 L56.818,122.009 L56.808,122.008 L56.799,122.007 L56.790,122.006 L56.781,122.005 L56.772,122.004 L56.763,122.003 L56.754,122.002 L56.744,122.001 L56.735,121.1000 L56.726,121.999 L56.717,121.998 L56.708,121.997 L56.699,121.996 L56.690,121.995 L56.681,121.994 L56.671,121.993 L56.662,121.992 L56.653,121.991 L56.644,121.990 L56.635,121.989 L56.626,121.987 L56.617,121.986 L56.607,121.985 L56.014,121.919 C55.685,121.883 55.376,121.940 55.088,122.091 C54.681,122.310 54.455,122.631 54.407,123.055 C54.376,123.341 54.444,123.613 54.613,123.872 C54.866,124.259 55.239,124.480 55.732,124.535 L58.098,124.798 L58.390,122.174 L58.372,122.172 ZM54.747,7.670 C54.008,7.783 53.329,7.581 52.712,7.067 C52.062,6.539 51.668,5.825 51.532,4.927 C51.397,4.036 51.561,3.238 52.024,2.534 C52.461,1.860 53.049,1.466 53.788,1.354 C54.200,1.292 54.625,1.332 55.062,1.474 C55.623,1.662 56.046,1.955 56.330,2.356 L56.028,2.573 C55.901,2.389 55.724,2.226 55.498,2.083 C54.976,1.750 54.425,1.631 53.845,1.726 C53.221,1.827 52.718,2.163 52.333,2.734 C51.920,3.361 51.774,4.073 51.896,4.872 C52.009,5.622 52.332,6.235 52.863,6.712 C53.415,7.204 54.024,7.400 54.691,7.299 C55.320,7.197 55.831,6.850 56.225,6.258 C56.612,5.667 56.754,5.028 56.650,4.341 L54.305,4.697 L54.248,4.325 L56.957,3.914 L56.985,4.100 C57.114,4.992 56.951,5.796 56.496,6.512 C56.057,7.174 55.474,7.560 54.747,7.670 ZM48.316,122.667 C47.642,123.105 46.945,123.225 46.224,123.026 C45.822,122.915 45.454,122.707 45.119,122.400 C44.684,121.994 44.417,121.554 44.319,121.079 L44.683,121.003 C44.731,121.224 44.828,121.449 44.974,121.678 C45.319,122.182 45.768,122.511 46.324,122.664 C46.934,122.825 47.531,122.723 48.115,122.358 C48.741,121.952 49.162,121.360 49.376,120.581 C49.578,119.850 49.533,119.159 49.242,118.507 C48.945,117.834 48.471,117.408 47.821,117.229 C47.514,117.144 47.184,117.128 46.833,117.181 C46.300,117.268 45.868,117.477 45.535,117.808 L45.284,117.544 C45.468,117.360 45.699,117.200 45.979,117.063 C46.635,116.756 47.282,116.691 47.921,116.867 C48.634,117.070 49.171,117.529 49.533,118.246 C49.906,118.992 49.972,119.803 49.731,120.679 C49.491,121.548 49.020,122.211 48.316,122.667 ZM47.203,9.226 L41.774,5.180 L43.475,10.337 L43.534,10.515 L43.185,10.630 L43.126,10.452 L41.242,4.742 L41.183,4.563 L41.445,4.477 L41.521,4.531 L46.950,8.577 L45.258,3.417 L45.199,3.239 L45.548,3.123 L45.607,3.302 L47.482,9.015 L47.541,9.193 L47.279,9.280 L47.203,9.226 ZM41.382,114.862 L40.203,117.422 L40.046,117.763 L38.868,120.324 L38.789,120.494 L38.455,120.340 L38.534,120.170 L39.712,117.610 L36.205,115.995 L35.027,118.555 L34.948,118.726 L34.614,118.572 L34.693,118.402 L35.871,115.841 L36.028,115.500 L37.207,112.940 L37.285,112.769 L37.619,112.923 L37.541,113.093 L36.362,115.654 L39.869,117.268 L41.048,114.708 L41.127,114.537 L41.461,114.691 L41.382,114.862 ZM38.270,12.583 L35.660,7.166 L35.579,6.997 L35.910,6.837 L35.992,7.007 L38.601,12.424 L38.683,12.593 L38.351,12.752 L38.270,12.583 ZM33.591,15.218 L27.303,12.706 L30.275,17.251 L30.378,17.409 L30.070,17.610 L29.967,17.453 L26.676,12.420 L26.574,12.263 L26.804,12.112 L26.892,12.145 L33.180,14.656 L30.216,10.106 L30.113,9.949 L30.420,9.747 L30.523,9.905 L33.806,14.942 L33.909,15.099 L33.678,15.250 L33.591,15.218 ZM25.853,20.843 L19.235,19.415 L22.923,23.401 L23.050,23.539 L22.781,23.788 L22.653,23.651 L18.569,19.237 L18.441,19.099 L18.644,18.912 L18.735,18.930 L25.354,20.357 L21.673,16.365 L21.545,16.227 L21.815,15.978 L21.942,16.116 L26.020,20.535 L26.147,20.673 L25.945,20.860 L25.853,20.843 ZM19.947,26.808 L19.699,27.127 L19.582,27.095 L13.667,25.552 L16.628,30.899 L16.689,31.005 L16.441,31.324 L16.307,31.069 L13.135,25.348 L13.075,25.243 L13.221,25.054 L13.338,25.087 L19.666,26.741 L19.947,26.808 ZM14.279,33.1000 L14.607,34.183 L14.517,34.343 L12.904,37.233 L12.815,37.393 L12.651,37.302 L7.400,34.371 L7.236,34.280 L7.415,33.959 L7.580,34.050 L12.666,36.889 L14.189,34.160 L14.279,33.1000 ZM7.423,42.054 L6.591,44.294 L9.233,45.276 L9.409,45.341 L9.281,45.686 L9.104,45.620 L6.462,44.639 L6.286,44.573 L3.480,43.521 L3.304,43.455 L3.368,43.283 L4.253,40.875 C4.411,40.450 4.679,40.125 5.056,39.899 C5.523,39.615 5.1000,39.563 6.487,39.744 C6.857,39.882 7.141,40.134 7.338,40.502 C7.598,40.991 7.626,41.508 7.423,42.054 ZM7.129,40.983 C7.015,40.536 6.758,40.237 6.359,40.089 C6.083,39.987 5.799,39.986 5.508,40.087 C5.077,40.240 4.776,40.547 4.605,41.006 L3.772,43.247 L6.247,44.166 L7.071,41.923 C7.186,41.612 7.206,41.299 7.129,40.983 ZM3.352,58.127 L3.363,57.943 L3.738,57.967 L3.727,58.151 L3.551,60.921 L6.176,61.088 L6.421,57.235 L6.432,57.051 L6.807,57.075 L6.796,57.258 L6.539,61.295 L6.528,61.478 L6.340,61.467 L3.527,61.288 L3.152,61.264 L0.339,61.086 L0.152,61.074 L0.164,60.890 L0.420,56.854 L0.431,56.670 L0.807,56.694 L0.795,56.878 L0.550,60.731 L3.176,60.897 L3.352,58.127 ZM1.908,66.545 C2.176,66.518 2.438,66.560 2.695,66.669 C3.163,66.881 3.486,67.243 3.663,67.755 C3.723,67.669 3.790,67.585 3.864,67.504 C4.263,67.082 5.085,66.618 6.331,66.112 L6.566,66.014 L6.605,66.398 L6.478,66.448 C5.620,66.805 4.990,67.117 4.589,67.385 C4.253,67.616 3.980,67.908 3.770,68.262 L4.002,70.585 L6.807,70.304 L6.994,70.286 L7.031,70.651 L6.844,70.670 L4.039,70.951 L3.852,70.970 L0.869,71.259 L0.682,71.278 L0.664,71.095 L0.400,68.553 C0.355,68.102 0.449,67.689 0.682,67.314 C0.982,66.853 1.391,66.597 1.908,66.545 ZM1.011,70.884 L3.638,70.621 L3.636,70.603 L3.635,70.594 L3.634,70.585 L3.633,70.576 L3.632,70.567 L3.631,70.557 L3.631,70.548 L3.630,70.539 L3.629,70.530 L3.628,70.521 L3.627,70.512 L3.626,70.503 L3.625,70.493 L3.624,70.484 L3.623,70.475 L3.622,70.466 L3.621,70.457 L3.620,70.448 L3.620,70.439 L3.619,70.429 L3.618,70.420 L3.617,70.411 L3.616,70.402 L3.615,70.393 L3.614,70.384 L3.613,70.374 L3.612,70.365 L3.611,70.356 L3.610,70.347 L3.609,70.338 L3.609,70.329 L3.608,70.320 L3.607,70.310 L3.606,70.301 L3.605,70.292 L3.604,70.283 L3.603,70.274 L3.602,70.265 L3.601,70.256 L3.600,70.246 L3.599,70.237 L3.598,70.228 L3.598,70.219 L3.597,70.210 L3.596,70.201 L3.595,70.192 L3.594,70.182 L3.593,70.173 L3.592,70.164 L3.591,70.155 L3.590,70.146 L3.589,70.137 L3.588,70.128 L3.588,70.118 L3.587,70.109 L3.586,70.100 L3.585,70.091 L3.584,70.082 L3.583,70.073 L3.582,70.063 L3.581,70.054 L3.580,70.045 L3.579,70.036 L3.578,70.027 L3.577,70.018 L3.577,70.009 L3.576,69.999 L3.575,69.990 L3.574,69.981 L3.573,69.972 L3.572,69.963 L3.571,69.954 L3.570,69.945 L3.569,69.935 L3.568,69.926 L3.567,69.917 L3.566,69.908 L3.566,69.899 L3.565,69.890 L3.564,69.881 L3.563,69.871 L3.562,69.862 L3.561,69.853 L3.560,69.844 L3.559,69.835 L3.558,69.826 L3.557,69.817 L3.556,69.807 L3.555,69.798 L3.555,69.789 L3.554,69.780 L3.553,69.771 L3.552,69.762 L3.551,69.753 L3.550,69.743 L3.549,69.734 L3.548,69.725 L3.547,69.716 L3.546,69.707 L3.545,69.698 L3.544,69.688 L3.544,69.679 L3.543,69.670 L3.542,69.661 L3.541,69.652 L3.540,69.643 L3.539,69.634 L3.538,69.624 L3.537,69.615 L3.536,69.606 L3.535,69.597 L3.534,69.588 L3.533,69.579 L3.533,69.570 L3.532,69.560 L3.531,69.551 L3.530,69.542 L3.529,69.533 L3.528,69.524 L3.518,69.516 L3.517,69.506 L3.516,69.497 L3.515,69.488 L3.514,69.479 L3.513,69.470 L3.512,69.461 L3.511,69.452 L3.510,69.442 L3.510,69.433 L3.509,69.424 L3.508,69.415 L3.507,69.406 L3.506,69.397 L3.505,69.388 L3.504,69.378 L3.503,69.369 L3.502,69.360 L3.501,69.351 L3.500,69.342 L3.499,69.333 L3.499,69.324 L3.498,69.314 L3.497,69.305 L3.496,69.296 L3.495,69.287 L3.494,69.278 L3.493,69.269 L3.492,69.260 L3.491,69.250 L3.490,69.241 L3.489,69.232 L3.488,69.223 L3.488,69.214 L3.487,69.205 L3.486,69.195 L3.485,69.186 L3.484,69.177 L3.483,69.168 L3.482,69.159 L3.481,69.150 L3.480,69.141 L3.479,69.131 L3.478,69.122 L3.477,69.113 L3.477,69.104 L3.476,69.095 L3.475,69.086 L3.474,69.077 L3.473,69.067 L3.472,69.058 L3.471,69.049 L3.470,69.040 L3.469,69.031 L3.468,69.022 L3.467,69.013 L3.466,69.003 L3.466,68.994 L3.465,68.985 L3.464,68.976 L3.463,68.967 L3.462,68.958 L3.461,68.949 L3.460,68.939 L3.459,68.930 L3.458,68.921 L3.457,68.912 L3.456,68.903 L3.456,68.894 L3.455,68.885 L3.454,68.875 L3.453,68.866 L3.452,68.857 L3.451,68.848 L3.450,68.839 L3.391,68.244 C3.358,67.915 3.237,67.625 3.030,67.375 C2.730,67.023 2.369,66.868 1.945,66.911 C1.658,66.939 1.406,67.063 1.189,67.282 C0.863,67.610 0.724,68.021 0.774,68.515 L1.011,70.884 ZM5.898,75.908 C6.393,75.773 6.879,75.828 7.355,76.073 C7.924,76.376 8.296,76.850 8.471,77.494 C8.621,78.044 8.576,78.574 8.338,79.083 C8.063,79.647 7.636,80.008 7.055,80.165 L3.066,81.250 L2.894,81.297 L2.793,80.924 L2.977,80.884 L6.959,79.811 C7.346,79.705 7.654,79.479 7.884,79.130 C8.186,78.667 8.261,78.155 8.108,77.593 C7.993,77.167 7.762,76.820 7.417,76.552 C6.976,76.221 6.502,76.124 5.994,76.262 L2.005,77.347 L1.833,77.394 L1.732,77.021 L1.915,76.981 L5.898,75.908 ZM4.992,86.067 L5.818,87.903 L11.130,85.514 L11.302,85.437 L11.453,85.773 L11.281,85.850 L5.969,88.239 L6.802,90.091 L6.877,90.259 L6.535,90.413 L6.459,90.246 L5.626,88.393 L5.475,88.057 L4.649,86.221 L4.574,86.054 L4.917,85.900 L4.992,86.067 ZM10.263,93.996 C10.152,94.193 10.076,94.426 10.034,94.695 C9.958,95.300 10.078,95.844 10.393,96.327 C10.743,96.852 11.258,97.171 11.937,97.283 C12.676,97.394 13.383,97.229 14.059,96.787 C14.694,96.373 15.118,95.826 15.332,95.144 C15.555,94.443 15.482,93.810 15.113,93.245 C14.939,92.979 14.703,92.749 14.405,92.555 C13.948,92.268 13.486,92.138 13.017,92.166 L13.004,91.801 C13.263,91.786 13.543,91.819 13.843,91.901 C14.538,92.106 15.066,92.486 15.428,93.040 C15.828,93.664 15.926,94.365 15.723,95.142 C15.508,95.948 15.021,96.599 14.260,97.095 C13.505,97.588 12.713,97.773 11.884,97.648 C11.089,97.530 10.487,97.158 10.078,96.532 C9.850,96.183 9.712,95.783 9.664,95.331 C9.607,94.739 9.699,94.233 9.940,93.812 L10.263,93.996 ZM15.093,102.715 L17.691,105.571 L19.637,103.801 L17.769,101.747 L17.645,101.611 L17.923,101.358 L18.047,101.494 L19.915,103.548 L21.861,101.778 L19.263,98.922 L19.139,98.786 L19.417,98.533 L19.541,98.669 L22.263,101.661 L22.386,101.797 L22.247,101.924 L20.162,103.820 L19.884,104.073 L17.799,105.969 L17.660,106.096 L17.536,105.960 L14.815,102.968 L14.691,102.832 L14.969,102.579 L15.093,102.715 ZM21.805,109.513 L23.369,110.780 L27.035,106.253 L27.154,106.107 L27.439,106.339 L27.321,106.485 L23.655,111.011 L25.233,112.290 L25.376,112.405 L25.140,112.697 L24.997,112.582 L23.418,111.303 L23.132,111.072 L21.568,109.805 L21.425,109.689 L21.662,109.397 L21.805,109.513 ZM32.535,110.221 L32.635,110.062 L32.946,110.258 L32.846,110.417 L29.644,115.506 L29.544,115.665 L29.233,115.469 L29.333,115.310 L32.535,110.221 ZM96.420,109.012 L100.958,111.662 L99.705,106.558 L99.651,106.317 L100.292,105.839 L100.430,106.392 L101.889,112.339 L101.943,112.580 L101.560,112.866 L101.344,112.746 L96.055,109.660 L95.564,109.370 L96.205,108.892 L96.420,109.012 ZM109.454,96.265 L116.225,96.246 L111.770,93.140 L111.616,93.033 L111.826,92.731 L111.981,92.838 L116.913,96.278 L117.067,96.385 L116.909,96.612 L116.816,96.614 L110.045,96.633 L114.494,99.746 L114.648,99.854 L114.438,100.155 L114.284,100.048 L109.357,96.601 L109.203,96.494 L109.360,96.267 L109.454,96.265 ZM115.311,88.379 C115.002,87.647 115.003,86.948 115.313,86.281 C115.629,85.603 116.172,85.150 116.942,84.920 C117.742,84.671 118.554,84.738 119.377,85.121 C120.195,85.502 120.769,86.080 121.098,86.855 C121.418,87.592 121.421,88.300 121.105,88.978 C120.929,89.355 120.661,89.687 120.300,89.972 C119.834,90.336 119.355,90.525 118.864,90.540 L118.851,90.169 C119.074,90.165 119.308,90.108 119.552,89.999 C120.118,89.748 120.522,89.355 120.764,88.819 C121.025,88.244 121.024,87.638 120.761,87.002 C120.467,86.311 119.954,85.795 119.222,85.454 C118.535,85.134 117.846,85.064 117.155,85.242 C116.439,85.429 115.939,85.829 115.654,86.440 C115.391,87.020 115.397,87.638 115.672,88.294 C115.950,88.943 116.404,89.415 117.034,89.708 L118.035,87.558 L118.376,87.717 L117.220,90.200 L117.049,90.121 C116.234,89.735 115.655,89.154 115.311,88.379 ZM117.954,79.466 L118.062,79.114 L118.241,79.169 L123.988,80.938 L124.168,80.994 L124.060,81.345 L123.880,81.290 L118.133,79.521 L117.954,79.466 ZM123.955,75.076 C124.239,75.126 124.517,75.063 124.790,74.887 C125.194,74.616 125.443,74.212 125.538,73.675 C125.604,73.300 125.569,72.943 125.432,72.601 C125.244,72.151 124.943,71.890 124.530,71.817 C124.407,71.795 124.283,71.810 124.159,71.863 C123.884,71.983 123.550,72.363 123.157,73.003 C122.713,73.715 122.441,74.140 122.341,74.278 C121.867,74.909 121.386,75.183 120.899,75.097 C120.524,75.024 120.207,74.800 119.949,74.425 C119.607,73.910 119.496,73.312 119.617,72.630 C119.719,72.051 119.961,71.577 120.344,71.209 C120.756,70.821 121.196,70.669 121.665,70.751 L121.601,71.113 C121.310,71.068 121.026,71.146 120.749,71.346 C120.345,71.654 120.091,72.104 119.987,72.696 C119.911,73.124 119.945,73.528 120.088,73.908 C120.276,74.389 120.568,74.665 120.963,74.735 C121.092,74.757 121.223,74.740 121.354,74.682 C121.629,74.563 121.966,74.183 122.365,73.544 C122.803,72.831 123.071,72.409 123.171,72.277 C123.638,71.644 124.113,71.370 124.594,71.455 C124.976,71.522 125.294,71.724 125.546,72.061 C125.901,72.535 126.022,73.094 125.908,73.740 C125.818,74.253 125.594,74.674 125.237,75.003 C124.833,75.380 124.385,75.525 123.892,75.438 L123.955,75.076 Z"/>
</svg>