<svg width="136" height="54" viewBox="0 0 136 54" fill="none" xmlns="http://www.w3.org/2000/svg">
<path d="M28.3191 3.16504C21.7579 15.0736 10.0145 40.262 3.32111 52.409H1.81616C7.52475 40.8958 18.5156 14.4052 24.0899 3.16504H28.3191Z" fill="black"/>
<path d="M49.7166 52.4106H48.2117L27.6816 10.0379C28.3766 8.69299 29.0416 7.42348 29.6662 6.25586L49.7166 52.4106Z" fill="black"/>
<path d="M112.36 3.16504C105.799 15.0736 94.0553 40.262 87.3619 52.409H85.8569C91.5655 40.8958 102.556 14.4052 108.131 3.16504H112.36Z" fill="black"/>
<path d="M133.758 52.4106H132.253L111.723 10.0379C112.418 8.69299 113.083 7.42348 113.707 6.25586L133.758 52.4106Z" fill="black"/>
<path d="M78.4283 52.4107H76.8807L61.2471 29.4576L64.4168 27.6562L78.4283 52.4107Z" fill="black"/>
<path d="M56.5978 26.0771L64.9753 26.285C65.1181 26.2911 65.3526 26.2931 65.4869 26.2952C66.5634 26.3135 67.6505 26.1994 68.6929 25.9284C75.0857 24.3287 78.7948 17.6103 76.6802 11.6133C75.2477 7.26882 70.8267 3.99825 66.0432 3.74354C65.7214 3.71705 64.8325 3.70686 64.4978 3.69871C59.7634 3.62942 52.4283 3.43991 47.7429 3.39916V2.9264C49.8383 2.90603 54.0292 2.82859 56.1203 2.78784C56.8195 2.78172 65.0733 2.61056 65.5487 2.60648C66.6422 2.59426 67.7486 2.69206 68.8165 2.92844C76.4372 4.5301 81.1141 12.3693 78.8289 19.5075C77.5627 23.7378 73.9453 27.2794 69.5285 28.606C68.0662 29.0706 66.5122 29.2703 64.9731 29.2866L56.5957 29.4944V26.0771H56.5978Z" fill="black"/>
</svg>
