<svg width="1000" height="1000" viewBox="0 0 1000 1000" fill="none" xmlns="http://www.w3.org/2000/svg">
<g clip-path="url(#clip0_58_2)">
<path d="M327.33 441.745C296.55 500.185 241.46 623.795 210.06 683.405H203C229.78 626.905 281.34 496.905 307.49 441.745H327.33Z" fill="white"/>
<path d="M427.71 683.415H420.65L324.34 475.475C327.6 468.875 330.72 462.645 333.65 456.915L427.71 683.415Z" fill="white"/>
<path d="M721.58 441.745C690.8 500.185 635.71 623.795 604.31 683.405H597.25C624.03 626.905 675.59 496.905 701.74 441.745H721.58Z" fill="white"/>
<path d="M821.96 683.415H814.9L718.59 475.475C721.85 468.875 724.97 462.645 727.9 456.915L821.96 683.415Z" fill="white"/>
<path d="M562.4 683.415H555.14L481.8 570.775L496.67 561.935L562.4 683.415Z" fill="white"/>
<path d="M459.99 554.185L499.29 555.205C499.96 555.235 501.06 555.245 501.69 555.255C506.74 555.345 511.84 554.785 516.73 553.455C546.72 545.605 564.12 512.635 554.2 483.205C547.48 461.885 526.74 445.835 504.3 444.585C502.79 444.455 498.62 444.405 497.05 444.365C474.84 444.025 440.43 443.095 418.45 442.895V440.575C428.28 440.475 447.94 440.095 457.75 439.895C461.03 439.865 499.75 439.025 501.98 439.005C507.11 438.945 512.3 439.425 517.31 440.585C553.06 448.445 575 486.915 564.28 521.945C558.34 542.705 541.37 560.085 520.65 566.595C513.79 568.875 506.5 569.855 499.28 569.935L459.98 570.955V554.185H459.99Z" fill="white"/>
</g>
<defs>
<clipPath id="clip0_58_2">
<rect width="1000" height="1000" fill="white"/>
</clipPath>
</defs>
</svg>
