<svg width="136" height="63" viewBox="0 0 136 63" fill="none" xmlns="http://www.w3.org/2000/svg">
<g clip-path="url(#clip0_58_2)">
<path d="M27.3164 3.56836C20.5538 16.812 8.45001 44.8243 1.55115 58.333H0C5.88381 45.5291 17.212 16.0686 22.9574 3.56836H27.3164Z" fill="white"/>
<path d="M49.3708 58.335H47.8196L26.6594 11.2119C27.3757 9.71622 28.0612 8.30438 28.7049 7.00586L49.3708 58.335Z" fill="white"/>
<path d="M113.937 3.56836C107.174 16.812 95.0704 44.8243 88.1715 58.333H86.6204C92.5042 45.5291 103.832 16.0686 109.578 3.56836H113.937Z" fill="white"/>
<path d="M135.991 58.335H134.44L113.28 11.2119C113.996 9.71622 114.682 8.30438 115.325 7.00586L135.991 58.335Z" fill="white"/>
<path d="M78.9637 58.3353H77.3686L61.2551 32.809L64.5222 30.8057L78.9637 58.3353Z" fill="white"/>
<path d="M56.4631 29.0494L65.0977 29.2805C65.2449 29.2873 65.4866 29.2896 65.625 29.2918C66.7346 29.3122 67.8551 29.1853 68.9294 28.8839C75.5185 27.105 79.3415 19.6333 77.1619 12.964C75.6855 8.13245 71.1287 4.49522 66.1985 4.21195C65.8667 4.18249 64.9505 4.17115 64.6056 4.16209C59.7258 4.08504 52.1656 3.87428 47.3364 3.82896V3.3032C49.4962 3.28054 53.8156 3.19443 55.971 3.1491C56.6916 3.14231 65.1988 2.95195 65.6887 2.94742C66.8158 2.93382 67.9561 3.04259 69.0569 3.30547C76.9115 5.08669 81.7319 13.8047 79.3766 21.7432C78.0715 26.4478 74.3431 30.3864 69.7907 31.8617C68.2835 32.3784 66.6818 32.6005 65.0955 32.6186L56.4609 32.8498V29.0494H56.4631Z" fill="white"/>
</g>
<defs>
<clipPath id="clip0_58_2">
<rect width="136" height="63" fill="white"/>
</clipPath>
</defs>
</svg>
