<?xml version="1.0" encoding="utf-8"?>
<!-- Generator: Adobe Illustrator 25.2.0, SVG Export Plug-In . SVG Version: 6.00 Build 0)  -->
<svg version="1.1" id="Layer_1" xmlns="http://www.w3.org/2000/svg" xmlns:xlink="http://www.w3.org/1999/xlink" x="0px" y="0px"
	 viewBox="0 0 100 100" style="enable-background:new 0 0 100 100;" xml:space="preserve">
<style type="text/css">
	.st0{fill:#827D71;}
	.st1{display:none;}
	.st2{display:inline;fill:#827D71;}
</style>
<path class="st0" d="M93.2,51.9H6.8c-1.1,0-1.9-0.9-1.9-1.9v0c0-1.1,0.9-1.9,1.9-1.9h86.4c1.1,0,1.9,0.9,1.9,1.9v0
	C95.1,51.1,94.3,51.9,93.2,51.9z"/>
<g class="st1">
	<path class="st2" d="M48.4,73.1L5.1,29.9c-0.8-0.8-0.8-2.2,0-3l0,0c0.8-0.8,2.2-0.8,3,0l43.3,43.3c0.8,0.8,0.8,2.2,0,3l0,0
		C50.5,73.9,49.2,73.9,48.4,73.1z"/>
	<path class="st2" d="M51.6,73.1l43.3-43.3c0.8-0.8,0.8-2.2,0-3v0c-0.8-0.8-2.2-0.8-3,0L48.7,70.1c-0.8,0.8-0.8,2.2,0,3l0,0
		C49.5,73.9,50.8,73.9,51.6,73.1z"/>
</g>
</svg>
