<svg width="1000" height="1000" viewBox="0 0 1000 1000" fill="none" xmlns="http://www.w3.org/2000/svg">
<path d="M314.85 380.53C284.07 438.97 228.98 562.58 197.58 622.19H190.52C217.3 565.69 268.86 435.69 295.01 380.53H314.85Z" fill="black"/>
<path d="M415.23 622.2H408.17L311.86 414.26C315.12 407.66 318.24 401.43 321.17 395.7L415.23 622.2Z" fill="black"/>
<path d="M709.1 380.53C678.32 438.97 623.23 562.58 591.83 622.19H584.77C611.55 565.69 663.11 435.69 689.26 380.53H709.1Z" fill="black"/>
<path d="M809.48 622.2H802.42L706.11 414.26C709.37 407.66 712.49 401.43 715.42 395.7L809.48 622.2Z" fill="black"/>
<path d="M549.92 622.2H542.66L469.32 509.56L484.19 500.72L549.92 622.2Z" fill="black"/>
<path d="M447.51 492.97L486.81 493.99C487.48 494.02 488.58 494.03 489.21 494.04C494.26 494.13 499.36 493.57 504.25 492.24C534.24 484.39 551.64 451.42 541.72 421.99C535 400.67 514.26 384.62 491.82 383.37C490.31 383.24 486.14 383.19 484.57 383.15C462.36 382.81 427.95 381.88 405.97 381.68V379.36C415.8 379.26 435.46 378.88 445.27 378.68C448.55 378.65 487.27 377.81 489.5 377.79C494.63 377.73 499.82 378.21 504.83 379.37C540.58 387.23 562.52 425.7 551.8 460.73C545.86 481.49 528.89 498.87 508.17 505.38C501.31 507.66 494.02 508.64 486.8 508.72L447.5 509.74V492.97H447.51Z" fill="black"/>
</svg>
